<svg xmlns="http://www.w3.org/2000/svg" viewBox="0 0 100 100"><rect x="12" y="12" width="6" height="6" fill="#ff3b1f"/><rect x="11" y="25" width="8" height="8" fill="#ff3b1f"/><rect x="10" y="38" width="10" height="10" fill="#ff3b1f"/><rect x="25" y="11" width="8" height="8" fill="#ff3b1f"/><rect x="24" y="24" width="10" height="10" fill="#ff3b1f"/><rect x="23" y="37" width="12" height="12" fill="#ff3b1f"/><rect x="38" y="10" width="10" height="10" fill="#ff3b1f"/><rect x="37" y="23" width="12" height="12" fill="#ff3b1f"/><rect x="36" y="36" width="14" height="14" fill="#ff3b1f"/><rect x="82" y="12" width="6" height="6" fill="#111111"/><rect x="81" y="25" width="8" height="8" fill="#111111"/><rect x="80" y="38" width="10" height="10" fill="#111111"/><rect x="67" y="11" width="8" height="8" fill="#111111"/><rect x="66" y="24" width="10" height="10" fill="#111111"/><rect x="65" y="37" width="12" height="12" fill="#111111"/><rect x="52" y="10" width="10" height="10" fill="#111111"/><rect x="51" y="23" width="12" height="12" fill="#111111"/><rect x="50" y="36" width="14" height="14" fill="#111111"/><rect x="12" y="82" width="6" height="6" fill="#111111"/><rect x="11" y="67" width="8" height="8" fill="#111111"/><rect x="10" y="52" width="10" height="10" fill="#111111"/><rect x="25" y="81" width="8" height="8" fill="#111111"/><rect x="24" y="66" width="10" height="10" fill="#111111"/><rect x="23" y="51" width="12" height="12" fill="#111111"/><rect x="38" y="80" width="10" height="10" fill="#111111"/><rect x="37" y="65" width="12" height="12" fill="#111111"/><rect x="36" y="50" width="14" height="14" fill="#111111"/><rect x="82" y="82" width="6" height="6" fill="#ff3b1f"/><rect x="81" y="67" width="8" height="8" fill="#ff3b1f"/><rect x="80" y="52" width="10" height="10" fill="#ff3b1f"/><rect x="67" y="81" width="8" height="8" fill="#ff3b1f"/><rect x="66" y="66" width="10" height="10" fill="#ff3b1f"/><rect x="65" y="51" width="12" height="12" fill="#ff3b1f"/><rect x="52" y="80" width="10" height="10" fill="#ff3b1f"/><rect x="51" y="65" width="12" height="12" fill="#ff3b1f"/><rect x="50" y="50" width="14" height="14" fill="#ff3b1f"/></svg>